<svg id="Layer_3" data-name="Layer 3" xmlns="http://www.w3.org/2000/svg" viewBox="0 0 227.81 63.69"><defs><style>.cls-1{fill:#f37f36;}.cls-2,.cls-3{fill-rule:evenodd;}.cls-3{fill:#fff;}.cls-4,.cls-5{font-size:22px;font-family:Now-Black, Now;}.cls-5{letter-spacing:0.06em;}</style></defs><title>logo-ez</title><ellipse class="cls-1" cx="30.46" cy="33.56" rx="30.46" ry="30.12"/><path d="M40.26,9.82C56.63,9.82,70,22.91,70,39S56.63,68.18,40.26,68.18,10.56,55.09,10.56,39,23.88,9.82,40.26,9.82m0-2.05C22.72,7.77,8.51,21.76,8.51,39S22.72,70.23,40.26,70.23,72,56.25,72,39,57.79,7.77,40.26,7.77Z" transform="translate(-5.68 -7.77)"/><polygon class="cls-2" points="12.49 16.16 12.49 47.66 33.03 47.66 33.03 40.92 19.79 40.78 19.79 35.15 31 35.15 31 28.13 19.79 28.13 19.79 23.04 32.89 23.04 32.89 16.16 12.49 16.16"/><path class="cls-2" d="M5.68,24.83" transform="translate(-5.68 -7.77)"/><polygon class="cls-3" points="33.23 16.23 33.24 23.01 40.35 22.99 40.4 47.88 47.77 47.86 47.72 22.98 54.96 22.96 54.95 16.19 33.23 16.23"/><path class="cls-3" d="M8.51,19.47" transform="translate(-5.68 -7.77)"/><path d="M79,57.28h4.25v.78H79.94v2.43h2.81v.78H79.94V64.5H79Z" transform="translate(-5.68 -7.77)"/><path d="M84.21,62.54V59.15h.92v3.27c0,1,.31,1.43,1,1.43.56,0,.94-.27,1.46-.9v-3.8h.92V64.5h-.76l-.08-.84h0a2.3,2.3,0,0,1-1.8,1C84.72,64.63,84.21,63.91,84.21,62.54Z" transform="translate(-5.68 -7.77)"/><path d="M90.54,62.85v-3h-.81V59.2l.85-.05.11-1.5h.77v1.5h1.48v.74H91.46v3c0,.66.22,1,.85,1a1.92,1.92,0,0,0,.62-.14l.18.68a3.14,3.14,0,0,1-1,.2C90.93,64.63,90.54,63.91,90.54,62.85Z" transform="translate(-5.68 -7.77)"/><path d="M94.1,62.54V59.15H95v3.27c0,1,.31,1.43,1,1.43.56,0,.94-.27,1.46-.9v-3.8h.92V64.5h-.76l-.08-.84h0a2.32,2.32,0,0,1-1.8,1C94.61,64.63,94.1,63.91,94.1,62.54Z" transform="translate(-5.68 -7.77)"/><path d="M100.27,59.15H101l.08,1h0A1.88,1.88,0,0,1,102.69,59a1.28,1.28,0,0,1,.58.11l-.17.79a1.78,1.78,0,0,0-.53-.08c-.46,0-1,.32-1.38,1.23V64.5h-.92Z" transform="translate(-5.68 -7.77)"/><path d="M103.64,61.83A2.6,2.6,0,0,1,106.09,59c1.4,0,2.18,1,2.18,2.51a3.52,3.52,0,0,1,0,.51h-3.67a1.79,1.79,0,0,0,1.81,1.87,2.33,2.33,0,0,0,1.35-.43l.33.6a3.26,3.26,0,0,1-1.8.55A2.58,2.58,0,0,1,103.64,61.83Zm3.82-.43c0-1.08-.5-1.66-1.35-1.66a1.65,1.65,0,0,0-1.56,1.66Z" transform="translate(-5.68 -7.77)"/><path d="M111.93,57.28h2.19c1.5,0,2.53.5,2.53,1.77a1.59,1.59,0,0,1-1.07,1.57v0a1.67,1.67,0,0,1,1.49,1.73c0,1.42-1.14,2.11-2.78,2.11h-2.36Zm2,3.07c1.25,0,1.77-.45,1.77-1.18S115.14,58,114,58h-1.13v2.34Zm.19,3.42c1.26,0,2-.44,2-1.42s-.71-1.29-2-1.29h-1.28v2.71Z" transform="translate(-5.68 -7.77)"/><path d="M118,61.83A2.59,2.59,0,0,1,120.49,59c1.39,0,2.17,1,2.17,2.51a2.51,2.51,0,0,1,0,.51H119a1.79,1.79,0,0,0,1.81,1.87,2.39,2.39,0,0,0,1.36-.43l.33.6a3.31,3.31,0,0,1-1.8.55A2.57,2.57,0,0,1,118,61.83Zm3.81-.43c0-1.08-.49-1.66-1.35-1.66a1.65,1.65,0,0,0-1.56,1.66Z" transform="translate(-5.68 -7.77)"/><path d="M123.47,65.53a1.5,1.5,0,0,1,.8-1.21v0a1,1,0,0,1-.48-.87,1.25,1.25,0,0,1,.59-1v0a1.86,1.86,0,0,1-.7-1.44,1.92,1.92,0,0,1,2-1.9,2.32,2.32,0,0,1,.77.13h1.91v.7h-1.12a1.54,1.54,0,0,1,.44,1.1,1.85,1.85,0,0,1-2,1.85,2,2,0,0,1-.81-.18.77.77,0,0,0-.35.63c0,.34.23.58,1,.58h1.06c1.27,0,1.91.39,1.91,1.28S127.41,67,125.73,67C124.39,67,123.47,66.45,123.47,65.53Zm4.11-.28c0-.5-.38-.67-1.1-.67h-.94a3.09,3.09,0,0,1-.71-.08,1.1,1.1,0,0,0-.55.9c0,.57.59.94,1.58.94S127.58,65.81,127.58,65.25Zm-.7-4.33a1.16,1.16,0,1,0-2.31,0,1.16,1.16,0,1,0,2.31,0Z" transform="translate(-5.68 -7.77)"/><path d="M129.37,57.47a.64.64,0,1,1,.64.58A.59.59,0,0,1,129.37,57.47Zm.17,1.68h.92V64.5h-.92Z" transform="translate(-5.68 -7.77)"/><path d="M132.3,59.15h.76l.08.77h0A2.62,2.62,0,0,1,135,59c1.15,0,1.67.73,1.67,2.09V64.5h-.93V61.23c0-1-.3-1.42-1-1.42a2,2,0,0,0-1.49.82V64.5h-.93Z" transform="translate(-5.68 -7.77)"/><path d="M137.83,63.89l.45-.6a2.46,2.46,0,0,0,1.61.64c.72,0,1.07-.38,1.07-.83s-.64-.8-1.25-1c-.76-.27-1.62-.64-1.62-1.54S138.79,59,140,59a2.81,2.81,0,0,1,1.7.6l-.45.58a2.08,2.08,0,0,0-1.24-.48c-.69,0-1,.36-1,.77s.59.7,1.21.93c.78.29,1.66.6,1.66,1.62,0,.87-.7,1.59-2,1.59A3.3,3.3,0,0,1,137.83,63.89Z" transform="translate(-5.68 -7.77)"/><path d="M144.71,57.28h1l.78,3.93c.14.78.29,1.55.43,2.33h0c.17-.78.34-1.56.52-2.33l1-3.93h.85l1,3.93c.18.76.36,1.55.53,2.33h0c.14-.78.27-1.56.42-2.33l.77-3.93h.9l-1.52,7.22h-1.13l-1.11-4.34c-.13-.56-.25-1.09-.36-1.64h0c-.12.55-.24,1.08-.37,1.64l-1.09,4.34h-1.11Z" transform="translate(-5.68 -7.77)"/><path d="M154,57.47a.64.64,0,0,1,1.27,0,.64.64,0,0,1-1.27,0Zm.17,1.68h.92V64.5h-.92Z" transform="translate(-5.68 -7.77)"/><path d="M157.11,62.85v-3h-.81V59.2l.85-.05.11-1.5H158v1.5h1.48v.74H158v3c0,.66.22,1,.84,1a1.92,1.92,0,0,0,.63-.14l.17.68a3.08,3.08,0,0,1-1,.2C157.5,64.63,157.11,63.91,157.11,62.85Z" transform="translate(-5.68 -7.77)"/><path d="M160.74,56.66h.92v2.15l0,1.1a2.59,2.59,0,0,1,1.81-.89c1.15,0,1.66.73,1.66,2.09V64.5h-.92V61.23c0-1-.31-1.42-1-1.42a2,2,0,0,0-1.49.82V64.5h-.92Z" transform="translate(-5.68 -7.77)"/><path d="M169.14,61.52V57.28h.93v4.26c0,1.74.75,2.28,1.71,2.28s1.75-.54,1.75-2.28V57.28h.89v4.24c0,2.32-1.14,3.11-2.64,3.11S169.14,63.84,169.14,61.52Z" transform="translate(-5.68 -7.77)"/><path d="M175.67,63.89l.45-.6a2.48,2.48,0,0,0,1.61.64c.72,0,1.07-.38,1.07-.83s-.64-.8-1.24-1c-.77-.27-1.63-.64-1.63-1.54s.7-1.52,1.88-1.52a2.81,2.81,0,0,1,1.7.6l-.44.58a2.13,2.13,0,0,0-1.25-.48c-.68,0-1,.36-1,.77s.59.7,1.21.93c.78.29,1.66.6,1.66,1.62,0,.87-.7,1.59-2,1.59A3.3,3.3,0,0,1,175.67,63.89Z" transform="translate(-5.68 -7.77)"/><path d="M98,9" transform="translate(-5.68 -7.77)"/><path d="M182,2" transform="translate(-5.68 -7.77)"/><text class="cls-4" transform="translate(71.82 43.89) scale(0.96 1)">ENGINEERING</text><text class="cls-5" transform="translate(71.82 22.89) scale(0.95 1)">EZZYTECH</text></svg>